<svg width="226" height="36" viewBox="0 0 226 36" fill="none" xmlns="http://www.w3.org/2000/svg">
<path d="M208.179 12.2614L204.632 25.5642L225.362 8.01501L201.16 8.87932L208.179 12.2614Z" fill="#1E0D71"/>
<path d="M23.5978 26.7983C24.2099 24.9889 24.6765 23.1336 24.9933 21.2501L28.6 0.758301H18.6846L15.2671 20.4878C15.0664 21.7955 14.7234 23.0774 14.2442 24.3108C14.0753 24.7491 13.7696 25.1215 13.3724 25.3726C12.9751 25.6238 12.5076 25.7404 12.0389 25.7052C11.768 25.7252 11.4966 25.6748 11.251 25.5588C11.0054 25.4428 10.794 25.2653 10.6375 25.0435C10.3192 24.5085 10.1631 23.8927 10.1882 23.2708C10.1933 22.8497 10.2249 22.4294 10.2828 22.0122C10.3479 21.5573 10.4247 21.0551 10.5193 20.5174L13.9368 0.787838H3.92683L0.379286 21.2323C0.250829 21.8829 0.155968 22.5396 0.0953499 23.1999C0.0303116 23.8499 0.000800678 24.488 0.000800678 25.1203C-0.0160337 26.5212 0.232729 27.9126 0.733954 29.221V29.2683L23.2372 27.7202C23.3673 27.3952 23.4914 27.1292 23.5978 26.7983Z" fill="#1E0D71"/>
<path d="M41.2765 34.3379H51.6235L51.9073 32.7012L41.2056 33.9125L41.2765 34.3379Z" fill="#1E0D71"/>
<path d="M38.332 17.882H38.4739L39.9462 26.5384L53.1371 25.6284L57.4592 0.758301H48.9156L46.2608 17.6929H46.0716L43.4109 0.758301H32.8274L28.2097 27.3479L36.9781 26.7452L38.332 17.882Z" fill="#1E0D71"/>
<path d="M56.6494 34.338H66.7126L67.298 30.9581L57.0396 32.1222L56.6494 34.338Z" fill="#1E0D71"/>
<path d="M72.5483 0.758301H62.491L58.228 25.2798L68.4095 24.5767L72.5483 0.758301Z" fill="#1E0D71"/>
<path d="M103.495 0.758301H92.6215L85.556 22.3845H85.4082V0.758301H74.7773L76.2614 24.039L94.3066 22.7922L103.495 0.758301Z" fill="#1E0D71"/>
<path d="M76.9173 34.338H89.4934L92.0713 28.1515L76.6335 29.9005L76.9173 34.338Z" fill="#1E0D71"/>
<path d="M111.748 21.3918H114.675L119.109 21.0846L120.434 13.279H113.126L113.835 9.4856H121.764L123.284 0.758301H105.865L102.128 22.2545L111.713 21.5927L111.748 21.3918Z" fill="#1E0D71"/>
<path d="M100.024 34.338H118.347L119.861 25.4689H115.734L101.283 27.1056L100.024 34.338Z" fill="#1E0D71"/>
<path d="M136.617 34.3379H147.106L144.415 22.219L134.985 23.2885L136.617 34.3379Z" fill="#1E0D71"/>
<path d="M148.028 16.3634C149.044 14.4721 149.542 12.346 149.471 10.2005C149.471 7.04918 148.609 4.68566 146.887 3.10998C145.164 1.5343 142.673 0.74646 139.413 0.74646H127.783L124.312 20.7123L145.29 19.2705C146.421 18.5329 147.36 17.5363 148.028 16.3634V16.3634ZM138.343 14.4194C137.618 14.9829 136.725 15.2848 135.807 15.2762H134.76L135.854 9.06015H137.184C137.715 9.0786 138.23 9.24209 138.674 9.53284C139.2 9.85192 139.461 10.5019 139.461 11.4769C139.461 12.8713 139.088 13.8522 138.343 14.4194Z" fill="#1E0D71"/>
<path d="M121.954 34.338H131.443L133.335 23.4777L123.651 24.5708L121.954 34.338Z" fill="#1E0D71"/>
<path d="M168.574 16.9306C167.998 16.2423 167.345 15.6219 166.629 15.0812C166.031 14.6314 165.405 14.2209 164.754 13.8522C164.008 13.4313 163.295 12.9553 162.62 12.4281C162.418 12.2616 162.257 12.0508 162.149 11.8121C162.041 11.5733 161.99 11.3131 161.999 11.0514C161.988 10.6977 162.069 10.3473 162.236 10.0351C162.391 9.76972 162.603 9.54177 162.856 9.36737C163.107 9.1973 163.388 9.07696 163.684 9.01286C163.974 8.95024 164.269 8.91853 164.565 8.9183C165.337 8.92798 166.098 9.10541 166.794 9.43827C167.5 9.74692 168.143 10.1814 168.692 10.7205L174.386 3.41721C173.264 2.30715 171.9 1.47187 170.401 0.976869C168.504 0.301591 166.502 -0.0285884 164.488 0.00193887C162.654 -0.0277724 160.832 0.303483 159.126 0.976869C157.622 1.5693 156.251 2.45514 155.093 3.58267C153.99 4.6646 153.124 5.9646 152.551 7.39973C151.965 8.86328 151.668 10.4263 151.676 12.0027C151.655 13.0794 151.815 14.1519 152.149 15.1757C152.436 16.0431 152.87 16.8546 153.432 17.5747C153.737 17.9616 154.073 18.3232 154.437 18.656L169.124 17.6397C168.935 17.3915 168.763 17.1552 168.574 16.9306Z" fill="#1E0D71"/>
<path d="M157.399 20.7773C158.232 21.2096 158.999 21.7588 159.676 22.4082C160.055 22.8134 160.267 23.3478 160.267 23.9031C160.288 24.2132 160.226 24.5232 160.089 24.8022C159.952 25.0812 159.744 25.3192 159.486 25.4925C158.97 25.8241 158.368 25.9986 157.754 25.9948C156.847 25.9903 155.95 25.8035 155.117 25.4453C154.3 25.1144 153.54 24.6579 152.864 24.0922L147.17 31.6377C148.471 32.7465 149.981 33.5843 151.611 34.1017C153.634 34.7884 155.759 35.126 157.896 35.1003C159.449 35.0951 160.993 34.8622 162.478 34.4089C163.986 33.9692 165.393 33.2363 166.617 32.2522C167.861 31.2314 168.87 29.9534 169.573 28.506C170.37 26.8008 170.759 24.9336 170.708 23.0522C170.739 21.8552 170.538 20.6636 170.117 19.5424C170.117 19.4656 170.046 19.3947 170.017 19.3179L157.364 20.7537L157.399 20.7773Z" fill="#1E0D71"/>
<path d="M192.709 13.2791H185.401L186.111 9.4856H194.034L195.553 0.758301H178.141L175.279 17.2143L192.236 16.0503L192.709 13.2791Z" fill="#1E0D71"/>
<path d="M184.024 21.3918H191.332L192.106 16.8184L175.013 18.7505L172.299 34.338H190.622L192.136 25.4688H183.314L184.024 21.3918Z" fill="#1E0D71"/>
</svg>
